HIERARCHY
ROOT Hips
{
	OFFSET 0.000000 35.082581 0.000000
	CHANNELS 6 Xposition Yposition Zposition Xrotation Yrotation Zrotation 
	JOINT Spine
	{
		OFFSET 0.000000 6.876099 0.125700
		CHANNELS 3 Xrotation Yrotation Zrotation
		JOINT Spine1
		{
			OFFSET 0.000000 5.730043 0.104720
			CHANNELS 3 Xrotation Yrotation Zrotation
			JOINT Spine1_split
			{
				OFFSET 0.000000 5.730043 0.104720
				CHANNELS 3 Xrotation Yrotation Zrotation
				JOINT Spine2
				{
					OFFSET 0.000000 5.730043 0.104720
					CHANNELS 3 Xrotation Yrotation Zrotation
					JOINT Neck
					{
						OFFSET 0.000000 10.314075 0.188496
						CHANNELS 3 Xrotation Yrotation Zrotation
						JOINT Head
						{
							OFFSET 0.000000 7.643700 -2.377400
							CHANNELS 3 Xrotation Yrotation Zrotation
							JOINT HeadTop_End
							{
								OFFSET 0.000000 43.788605 -13.619600
								CHANNELS 3 Xrotation Yrotation Zrotation
								End Site
								{
									OFFSET 0.000000 0.000000 0.000000
								}
							}
						}
					}
					JOINT LeftShoulder
					{
						OFFSET 2.196100 4.412489 0.087492
						CHANNELS 3 Xrotation Yrotation Zrotation
						JOINT LeftShoulder_split
						{
							OFFSET 2.196100 4.412489 0.087492
							CHANNELS 3 Xrotation Yrotation Zrotation
							JOINT LeftArm
							{
								OFFSET 8.771219 -2.981674 -0.026999
								CHANNELS 3 Xrotation Yrotation Zrotation
								JOINT LeftForeArm
								{
									OFFSET 8.512804 0.000000 -0.000000
									CHANNELS 3 Xrotation Yrotation Zrotation
									JOINT LeftHand
									{
										OFFSET 18.484802 0.000000 -0.000000
										CHANNELS 3 Xrotation Yrotation Zrotation
										JOINT LeftHandThumb1
										{
											OFFSET 2.499420 -1.158070 2.653252
											CHANNELS 3 Xrotation Yrotation Zrotation
											JOINT LeftHandThumb2
											{
												OFFSET 2.370079 -1.368366 1.368366
												CHANNELS 3 Xrotation Yrotation Zrotation
												JOINT LeftHandThumb3
												{
													OFFSET 2.676727 -1.545410 1.545409
													CHANNELS 3 Xrotation Yrotation Zrotation
													JOINT LeftHandThumb4
													{
														OFFSET 1.692226 -0.977005 0.977007
														CHANNELS 3 Xrotation Yrotation Zrotation
														End Site
														{
															OFFSET 0.000000 0.000000 0.000000
														}
													}
												}
											}
										}
										JOINT LeftHandIndex1
										{
											OFFSET 7.924831 -0.457527 2.345128
											CHANNELS 3 Xrotation Yrotation Zrotation
											JOINT LeftHandIndex2
											{
												OFFSET 3.643303 0.000000 0.000000
												CHANNELS 3 Xrotation Yrotation Zrotation
												JOINT LeftHandIndex3
												{
													OFFSET 3.810799 0.000000 0.000000
													CHANNELS 3 Xrotation Yrotation Zrotation
													JOINT LeftHandIndex4
													{
														OFFSET 2.403702 0.000000 0.000000
														CHANNELS 3 Xrotation Yrotation Zrotation
														End Site
														{
															OFFSET 0.000000 0.000000 0.000000
														}
													}
												}
											}
										}
										JOINT LeftHandMiddle1
										{
											OFFSET 8.563995 0.000000 -0.000000
											CHANNELS 3 Xrotation Yrotation Zrotation
											JOINT LeftHandMiddle2
											{
												OFFSET 3.861618 0.000000 0.000000
												CHANNELS 3 Xrotation Yrotation Zrotation
												JOINT LeftHandMiddle3
												{
													OFFSET 3.701603 0.000000 0.000000
													CHANNELS 3 Xrotation Yrotation Zrotation
													JOINT LeftHandMiddle4
													{
														OFFSET 2.322544 0.000000 0.000000
														CHANNELS 3 Xrotation Yrotation Zrotation
														End Site
														{
															OFFSET 0.000000 0.000000 0.000000
														}
													}
												}
											}
										}
										JOINT LeftHandRing1
										{
											OFFSET 8.426460 -0.424637 -3.286992
											CHANNELS 3 Xrotation Yrotation Zrotation
											JOINT LeftHandRing2
											{
												OFFSET 3.126408 0.000000 0.000000
												CHANNELS 3 Xrotation Yrotation Zrotation
												JOINT LeftHandRing3
												{
													OFFSET 3.085026 0.000000 0.000000
													CHANNELS 3 Xrotation Yrotation Zrotation
													JOINT LeftHandRing4
													{
														OFFSET 1.644005 0.000000 0.000000
														CHANNELS 3 Xrotation Yrotation Zrotation
														End Site
														{
															OFFSET 0.000000 0.000000 0.000000
														}
													}
												}
											}
										}
									}
								}
							}
						}
					}
					JOINT RightShoulder
					{
						OFFSET -2.196100 4.412496 0.070690
						CHANNELS 3 Xrotation Yrotation Zrotation
						JOINT RightShoulder_split
						{
							OFFSET -2.196100 4.412496 0.070690
							CHANNELS 3 Xrotation Yrotation Zrotation
							JOINT RightArm
							{
								OFFSET -8.771282 -2.981682 -0.094208
								CHANNELS 3 Xrotation Yrotation Zrotation
								JOINT RightForeArm
								{
									OFFSET -8.494598 0.000000 0.000000
									CHANNELS 3 Xrotation Yrotation Zrotation
									JOINT RightHand
									{
										OFFSET -18.483803 0.000000 0.000001
										CHANNELS 3 Xrotation Yrotation Zrotation
										JOINT RightHandThumb1
										{
											OFFSET -2.527351 -1.008072 2.575253
											CHANNELS 3 Xrotation Yrotation Zrotation
											JOINT RightHandThumb2
											{
												OFFSET -2.321518 -1.340328 1.340329
												CHANNELS 3 Xrotation Yrotation Zrotation
												JOINT RightHandThumb3
												{
													OFFSET -2.657753 -1.534454 1.534455
													CHANNELS 3 Xrotation Yrotation Zrotation
													JOINT RightHandThumb4
													{
														OFFSET -1.807510 -1.043568 1.043567
														CHANNELS 3 Xrotation Yrotation Zrotation
														End Site
														{
															OFFSET 0.000000 0.000000 0.000000
														}
													}
												}
											}
										}
										JOINT RightHandIndex1
										{
											OFFSET -8.811420 0.015533 2.887987
											CHANNELS 3 Xrotation Yrotation Zrotation
											JOINT RightHandIndex2
											{
												OFFSET -3.537502 0.000000 0.000000
												CHANNELS 3 Xrotation Yrotation Zrotation
												JOINT RightHandIndex3
												{
													OFFSET -3.356201 0.000000 0.000000
													CHANNELS 3 Xrotation Yrotation Zrotation
													JOINT RightHandIndex4
													{
														OFFSET -1.933098 0.000000 0.000000
														CHANNELS 3 Xrotation Yrotation Zrotation
														End Site
														{
															OFFSET 0.000000 0.000000 0.000000
														}
													}
												}
											}
										}
										JOINT RightHandMiddle1
										{
											OFFSET -8.178135 0.000000 0.000000
											CHANNELS 3 Xrotation Yrotation Zrotation
											JOINT RightHandMiddle2
											{
												OFFSET -3.901302 0.000000 0.000000
												CHANNELS 3 Xrotation Yrotation Zrotation
												JOINT RightHandMiddle3
												{
													OFFSET -3.909599 0.000000 0.000000
													CHANNELS 3 Xrotation Yrotation Zrotation
													JOINT RightHandMiddle4
													{
														OFFSET -2.376003 0.000000 0.000000
														CHANNELS 3 Xrotation Yrotation Zrotation
														End Site
														{
															OFFSET 0.000000 0.000000 0.000000
														}
													}
												}
											}
										}
										JOINT RightHandRing1
										{
											OFFSET -7.559013 0.014137 -2.865403
											CHANNELS 3 Xrotation Yrotation Zrotation
											JOINT RightHandRing2
											{
												OFFSET -3.449306 0.000000 0.000000
												CHANNELS 3 Xrotation Yrotation Zrotation
												JOINT RightHandRing3
												{
													OFFSET -3.362106 0.000000 0.000000
													CHANNELS 3 Xrotation Yrotation Zrotation
													JOINT RightHandRing4
													{
														OFFSET -2.076401 0.000000 0.000000
														CHANNELS 3 Xrotation Yrotation Zrotation
														End Site
														{
															OFFSET 0.000000 0.000000 0.000000
														}
													}
												}
											}
										}
									}
								}
							}
						}
					}
				}
			}
		}
	}
	JOINT LeftUpLeg
	{
		OFFSET 10.205400 -3.823500 0.155100
		CHANNELS 3 Xrotation Yrotation Zrotation
		JOINT LeftLeg
		{
			OFFSET 0.708757 -12.982077 0.567790
			CHANNELS 3 Xrotation Yrotation Zrotation
			JOINT LeftFoot
			{
				OFFSET -0.708756 -10.717838 -2.184338
				CHANNELS 3 Xrotation Yrotation Zrotation
				JOINT LeftToeBase
				{
					OFFSET 0.108149 -7.191104 7.560241
					CHANNELS 3 Xrotation Yrotation Zrotation
					JOINT LeftToe_End
					{
						OFFSET 0.070230 0.081724 4.490308
						CHANNELS 3 Xrotation Yrotation Zrotation
						End Site
						{
							OFFSET 0.000000 0.000000 0.000000
						}
					}
				}
			}
		}
	}
	JOINT RightUpLeg
	{
		OFFSET -10.205400 -3.823500 0.005500
		CHANNELS 3 Xrotation Yrotation Zrotation
		JOINT RightLeg
		{
			OFFSET -0.708756 -12.982134 0.610632
			CHANNELS 3 Xrotation Yrotation Zrotation
			JOINT RightFoot
			{
				OFFSET 0.708754 -10.717769 -1.945823
				CHANNELS 3 Xrotation Yrotation Zrotation
				JOINT RightToeBase
				{
					OFFSET -0.108140 -7.191069 7.372968
					CHANNELS 3 Xrotation Yrotation Zrotation
					JOINT RightToe_End
					{
						OFFSET -0.070227 0.081735 4.479403
						CHANNELS 3 Xrotation Yrotation Zrotation
						End Site
						{
							OFFSET 0.000000 0.000000 0.000000
						}
					}
				}
			}
		}
	}
}
MOTION
Frames: 4
Frame Time: 0.016667
-0.052989 31.920725 -2.134855 -24.525169 -2.839969 -1.115904 11.143402 -4.480154 -1.309381 3.545657 -2.400648 -0.151373 0.000000 0.000000 0.000000 3.557024 -2.388376 -0.108335 1.551789 0.634301 -1.308391 -6.938526 0.762142 3.865454 -0.000001 0.000000 0.000000 0.445066 -15.488186 -11.025432 0.000000 0.000000 0.000000 -20.285394 3.054793 -36.773547 -0.000017 -67.201944 -0.000006 -41.639996 -11.471759 -7.743303 -22.783327 -14.798025 12.273468 3.104717 10.435612 14.815836 3.249521 44.532632 6.783447 -0.000001 0.000001 -0.000001 1.968601 -2.875775 26.071493 3.265022 5.250357 -63.730419 1.613345 4.038121 -43.542432 0.000001 0.000000 -0.000000 -0.918339 3.905205 20.820674 2.974893 5.097501 -60.513809 3.266992 5.251301 -63.751825 0.000000 -0.000000 -0.000001 -6.190607 13.399330 27.815698 3.764236 5.467493 -69.071941 1.278674 3.654659 -38.556544 -0.000000 -0.000000 -0.000000 0.064844 14.691503 14.953755 0.000000 0.000000 0.000000 -12.070000 -6.923743 61.446649 0.000016 39.415441 -0.000010 -1.891997 -4.118467 24.314835 -20.073123 16.089506 -24.921337 8.794324 -40.952769 -1.386069 -0.155061 -28.868795 -23.120262 -0.000003 0.000001 0.000003 1.063126 -5.182536 38.505530 3.100482 -4.389841 70.453039 0.158031 1.204110 -14.952691 0.000003 -0.000000 0.000000 2.946413 -6.593234 70.499874 0.642389 -2.362177 30.423128 0.145572 1.156527 -14.348501 0.000006 0.000000 -0.000000 5.948324 -7.199723 80.598568 0.322681 -1.704978 21.432114 0.002685 -0.158677 1.948210 -0.000003 -0.000000 0.000001 14.688933 21.590334 0.254725 37.126832 4.795253 -10.384684 -33.580796 28.589534 12.062995 0.241636 0.026433 -0.826488 0.000000 -0.000001 0.000000 37.333305 -15.037469 4.901531 22.220491 -9.487298 -0.472974 -32.163115 -29.672804 0.264017 0.596272 -0.007306 0.727800 0.000000 0.000002 0.000000 
-0.143803 31.932566 -2.040239 -24.550654 -3.802391 -1.560565 11.143591 -4.486189 -1.306541 3.545657 -2.400647 -0.151373 0.000000 0.000000 0.000000 3.557024 -2.388376 -0.108335 1.569039 0.632569 -1.281187 -6.886418 0.740095 3.939076 -0.000002 -0.000001 -0.000000 0.453279 -15.502123 -10.972477 0.000000 0.000000 0.000000 -20.293312 3.094333 -36.833636 0.000006 -67.199328 0.000032 -41.623671 -11.480575 -7.750257 -22.783324 -14.798021 12.273468 3.108308 10.435735 14.812904 3.243431 44.532048 6.788141 -0.000002 -0.000002 -0.000000 1.972007 -2.887005 26.060462 3.263309 5.249515 -63.711725 1.613343 4.038122 -43.542429 0.000001 0.000000 -0.000000 -0.911532 3.888559 20.812140 2.975735 5.097981 -60.523611 3.268549 5.252077 -63.768736 0.000001 0.000001 0.000000 -6.204525 13.442053 27.794063 3.753709 5.463462 -68.961176 1.278674 3.654658 -38.556544 0.000000 -0.000000 0.000000 0.059582 14.649709 15.003844 0.000000 0.000000 0.000000 -12.024878 -6.807481 61.377624 -0.000005 39.437020 0.000004 -1.973387 -4.141929 24.291518 -20.073125 16.089503 -24.921333 8.794329 -40.952773 -1.386071 -0.157779 -28.865882 -23.124481 -0.000000 -0.000002 -0.000000 1.073334 -5.197487 38.626103 3.094980 -4.387898 70.380790 0.158100 1.204437 -14.956567 0.000001 -0.000000 0.000000 2.960349 -6.598226 70.519736 0.642412 -2.362213 30.423582 0.145882 1.157741 -14.363849 -0.000004 0.000000 0.000000 5.942378 -7.197736 80.626702 0.322964 -1.705682 21.441495 0.002688 -0.158678 1.948209 -0.000005 0.000001 -0.000000 13.773852 22.179545 1.278043 39.341951 4.800227 -10.329077 -33.241455 28.870588 11.198531 -0.254254 0.062572 -1.491568 0.000000 -0.000001 0.000000 37.145349 -14.635256 4.794179 22.321311 -9.343209 -0.376299 -32.275571 -29.100414 0.014180 0.609394 -0.007598 0.743650 0.000000 0.000003 0.000001 
-0.225336 31.949095 -1.949938 -24.583912 -4.772726 -2.006271 11.143550 -4.491026 -1.306862 3.545657 -2.400648 -0.151373 0.000000 0.000000 0.000000 3.557023 -2.388378 -0.108335 1.594338 0.627994 -1.252938 -6.802726 0.692376 4.007736 -0.000000 0.000001 0.000000 0.460824 -15.508026 -10.923483 0.000000 0.000000 0.000000 -20.284320 3.109533 -36.878934 0.000040 -67.192901 0.000037 -41.627052 -11.498692 -7.746712 -22.783325 -14.798030 12.273465 3.113737 10.435888 14.808475 3.241930 44.531898 6.789023 0.000000 -0.000004 -0.000002 1.969738 -2.895159 26.045171 3.259415 5.247591 -63.669029 1.613344 4.038122 -43.542429 -0.000000 0.000000 -0.000000 -0.905905 3.873782 20.810147 2.976637 5.098488 -60.533617 3.269997 5.252798 -63.784562 0.000000 -0.000001 -0.000001 -6.207488 13.459991 27.775159 3.749424 5.461809 -68.916240 1.278673 3.654658 -38.556537 -0.000000 0.000000 0.000001 0.056302 14.633622 15.032345 0.000000 0.000000 0.000000 -11.965739 -6.692802 61.317156 -0.000003 39.454062 0.000007 -2.087388 -4.155312 24.254591 -20.073127 16.089506 -24.921333 8.794321 -40.952769 -1.386067 -0.175232 -28.846877 -23.151862 0.000004 -0.000002 -0.000002 1.083618 -5.208377 38.767952 3.091864 -4.386779 70.339979 0.158051 1.204216 -14.953707 -0.000001 -0.000000 0.000001 2.965371 -6.600084 70.543608 0.642275 -2.361965 30.420119 0.145971 1.158094 -14.368234 -0.000005 0.000000 -0.000000 5.939521 -7.195775 80.668673 0.323131 -1.706104 21.447077 0.002691 -0.158678 1.948208 0.000001 0.000000 -0.000001 12.588057 22.758187 2.396707 41.869094 4.811281 -10.260785 -32.781852 29.103095 10.601534 -0.585893 0.135022 -2.523827 0.000000 -0.000003 0.000000 36.934869 -14.243262 4.655372 22.425531 -9.260108 -0.295111 -32.323133 -28.471264 -0.153827 0.609235 -0.007598 0.743466 0.000000 0.000001 0.000000 
-0.318446 31.967316 -1.848029 -24.625252 -5.752252 -2.452276 11.143203 -4.493430 -1.311604 3.545656 -2.400646 -0.151372 0.000000 0.000000 0.000000 3.557025 -2.388377 -0.108335 1.621907 0.619887 -1.221550 -6.707818 0.616426 4.081619 0.000000 -0.000000 0.000000 0.467427 -15.512277 -10.880554 0.000000 0.000000 0.000000 -20.273881 3.119682 -36.916913 0.000010 -67.186652 0.000011 -41.632913 -11.516119 -7.742020 -22.783324 -14.798025 12.273463 3.121081 10.436142 14.802470 3.239621 44.531665 6.790443 -0.000001 0.000003 0.000002 1.966049 -2.898955 26.024721 3.255057 5.245447 -63.621498 1.613343 4.038121 -43.542429 0.000000 -0.000000 0.000000 -0.901184 3.860900 20.811096 2.977381 5.098905 -60.541964 3.270987 5.253268 -63.795456 0.000000 0.000000 -0.000002 -6.204297 13.462539 27.760010 3.748890 5.461601 -68.910516 1.278674 3.654658 -38.556544 0.000000 -0.000000 0.000001 0.054420 14.630965 15.046403 0.000000 0.000000 0.000000 -11.904867 -6.587373 61.267343 -0.000021 39.465728 0.000030 -2.208373 -4.161582 24.213821 -20.073123 16.089498 -24.921337 8.794327 -40.952769 -1.386069 -0.196625 -28.823603 -23.185376 -0.000000 0.000000 -0.000000 1.092562 -5.215362 38.900335 3.089332 -4.385870 70.307126 0.157887 1.203590 -14.945968 0.000000 0.000001 -0.000000 2.965387 -6.600160 70.564385 0.642073 -2.361637 30.415577 0.145945 1.157984 -14.367089 -0.000002 0.000000 0.000000 5.938362 -7.193997 80.713698 0.323233 -1.706375 21.450622 0.002688 -0.158677 1.948211 -0.000000 -0.000001 0.000001 11.179228 23.282228 3.662842 44.595094 4.799900 -10.155017 -32.172749 29.295556 10.222981 -0.696418 0.252821 -3.908207 0.000000 0.000001 0.000000 36.804013 -13.854052 4.552748 22.424966 -9.226439 -0.244783 -32.326247 -27.794627 -0.284709 0.598042 -0.007312 0.729873 -0.000000 0.000001 -0.000000 
